<?xml version="1.0" standalone="no"?>
<!DOCTYPE svg PUBLIC "-//W3C//DTD SVG 20010904//EN"
 "http://www.w3.org/TR/2001/REC-SVG-20010904/DTD/svg10.dtd">
<svg version="1.0" xmlns="http://www.w3.org/2000/svg"
 width="500.000000pt" height="500.000000pt" viewBox="0 0 500.000000 500.000000"
 preserveAspectRatio="xMidYMid meet">
<metadata>
Created by potrace 1.16, written by Peter Selinger 2001-2019
</metadata>
<g transform="translate(0.000000,500.000000) scale(0.100000,-0.100000)"
fill="#000000" stroke="none">
<path d="M2085 3955 c-223 -65 -409 -176 -629 -376 -45 -41 -55 -46 -88 -42
-30 4 -42 0 -64 -22 -22 -22 -25 -32 -20 -64 5 -33 -1 -49 -44 -122 -27 -46
-53 -90 -58 -98 -6 -11 -25 -14 -71 -12 -60 2 -63 1 -101 -37 -36 -36 -40 -44
-40 -92 0 -47 4 -56 38 -90 20 -20 42 -39 48 -41 8 -3 6 -35 -6 -109 -10 -58
-21 -151 -24 -207 -7 -98 -6 -103 13 -103 17 0 20 10 26 98 6 94 30 269 41
305 3 9 13 17 22 17 29 0 80 38 97 71 18 34 16 84 -5 134 -12 29 -10 36 45
128 56 92 60 97 92 97 45 0 86 43 80 83 -3 24 8 39 82 110 90 85 169 146 272
209 61 37 253 116 340 140 36 10 45 17 40 29 -5 15 -13 15 -86 -6z m-919 -799
c44 -44 46 -86 5 -127 -61 -60 -161 -26 -161 56 0 46 13 71 48 89 43 24 71 19
108 -18z"/>
<path d="M2588 3960 c-11 -18 -24 -20 -103 -20 -340 0 -694 -165 -943 -438
-105 -116 -153 -185 -217 -312 -92 -183 -143 -366 -160 -572 -6 -74 -6 -78 14
-78 19 0 21 6 21 58 0 141 51 347 128 520 108 240 276 437 502 587 208 139
375 194 610 202 134 5 135 5 145 -18 22 -52 105 -27 105 31 0 53 -76 83 -102
40z"/>
<path d="M2547 3815 c-21 -8 -51 -24 -67 -35 -26 -18 -35 -20 -67 -10 -73 20
-203 23 -283 6 -78 -16 -219 -79 -312 -138 -100 -65 -318 -290 -318 -330 0
-25 32 0 72 56 67 92 228 232 340 293 106 58 193 87 291 98 72 7 90 -5 36 -24
-41 -14 -144 -89 -194 -140 -27 -29 -47 -41 -67 -41 -18 0 -33 -8 -44 -25 -15
-23 -15 -27 0 -50 32 -48 96 -26 96 34 0 40 139 156 241 200 53 23 125 36 132
24 3 -5 -8 -29 -24 -54 -17 -24 -34 -54 -39 -67 -6 -12 -21 -27 -34 -32 -48
-18 -59 -71 -25 -114 25 -32 77 -36 102 -8 24 26 22 88 -2 109 -19 16 -19 17
4 62 13 25 34 57 48 70 l26 23 70 -32 c39 -18 71 -39 71 -46 0 -22 30 -44 59
-44 34 0 55 22 56 58 0 21 9 32 38 47 l37 20 40 -45 c22 -25 57 -80 77 -122
34 -69 63 -99 63 -65 0 25 -58 133 -99 185 -37 47 -39 52 -20 52 63 0 250
-128 307 -210 25 -37 30 -39 80 -40 54 0 61 5 40 32 -17 21 -39 27 -59 17 -13
-6 -36 10 -97 71 -45 44 -96 89 -114 101 l-33 21 33 -6 c96 -17 276 -109 370
-190 60 -52 96 -63 65 -21 -31 43 -134 114 -248 171 -133 66 -252 98 -339 92
-56 -4 -65 -2 -111 29 -42 28 -58 33 -105 32 -30 0 -72 -7 -93 -14z"/>
<path d="M3619 3372 c-96 -48 -64 -182 43 -182 86 0 129 97 71 159 -36 38 -70
45 -114 23z"/>
<path d="M2640 3285 l0 -85 410 0 410 0 0 85 0 85 -410 0 -410 0 0 -85z"/>
<path d="M2368 3159 c-106 -231 -216 -467 -260 -559 -22 -47 -51 -109 -64
-137 l-24 -53 94 0 93 0 28 68 c16 37 33 73 38 80 7 9 53 12 171 12 l161 0 34
-80 34 -80 94 0 c51 0 93 2 93 5 0 7 -217 463 -340 714 l-86 173 -66 -143z
m116 -334 c26 -53 46 -98 46 -100 0 -3 -41 -5 -91 -5 -78 0 -90 2 -85 15 18
47 79 185 82 185 1 0 23 -43 48 -95z"/>
<path d="M1627 3233 c-57 -19 -121 -86 -137 -142 -14 -51 -12 -136 4 -174 23
-53 85 -102 181 -142 50 -20 102 -49 117 -64 62 -61 23 -151 -66 -151 -50 0
-118 30 -151 66 l-26 28 -62 -63 -62 -62 40 -35 c22 -19 67 -48 101 -65 53
-27 71 -30 147 -30 100 -1 160 21 220 79 63 61 84 177 51 275 -25 74 -93 126
-247 187 -87 34 -109 79 -62 125 18 19 35 25 67 25 40 0 56 -7 121 -52 16 -12
25 -6 73 46 53 56 55 59 38 77 -70 77 -231 110 -347 72z"/>
<path d="M2777 3093 c-4 -3 -7 -39 -7 -80 l0 -73 130 0 130 0 0 -265 0 -265
85 0 85 0 0 265 0 265 130 0 130 0 0 80 0 80 -338 0 c-186 0 -342 -3 -345 -7z"/>
<path d="M3580 2750 l0 -340 80 0 80 0 0 340 0 340 -80 0 -80 0 0 -340z"/>
<path d="M3986 3065 c60 -197 78 -352 71 -598 -2 -103 -1 -189 3 -192 12 -7
20 47 26 175 10 194 -33 477 -91 602 -8 18 -13 24 -9 13z"/>
<path d="M3837 3033 c-4 -7 8 -61 28 -121 53 -163 67 -241 74 -412 5 -128 9
-155 21 -155 13 0 15 19 12 125 -3 154 -23 273 -68 410 -45 138 -58 167 -67
153z"/>
<path d="M890 2398 c0 -10 81 -225 155 -413 48 -121 89 -228 92 -237 4 -14 17
-18 62 -18 l56 0 42 108 c23 59 59 151 79 205 20 54 40 94 44 90 6 -6 108
-260 152 -376 10 -26 14 -28 66 -25 l55 3 49 130 c27 72 73 195 104 275 30 80
54 149 54 153 0 4 -33 7 -72 5 l-73 -3 -57 -155 c-31 -85 -58 -159 -60 -164
-2 -5 -19 31 -37 80 -17 49 -54 145 -80 214 l-49 125 -54 3 -54 3 -48 -123
c-26 -68 -62 -162 -79 -210 -18 -49 -35 -88 -39 -88 -4 0 -21 42 -37 93 -17
50 -50 144 -73 207 l-43 115 -78 3 c-42 2 -77 2 -77 0z"/>
<path d="M2113 2294 c-104 -37 -193 -164 -193 -276 0 -126 73 -235 186 -278
84 -31 188 -25 263 15 63 34 95 71 129 144 34 73 29 186 -11 254 -35 60 -107
122 -164 141 -57 20 -154 19 -210 0z m194 -120 c95 -46 125 -192 56 -274 -99
-118 -274 -78 -322 72 -22 67 21 163 89 199 44 24 130 25 177 3z"/>
<path d="M2630 2015 l0 -285 60 0 60 0 0 85 c0 62 3 85 13 85 6 -1 37 -38 68
-83 l55 -82 72 -3 c40 -2 72 1 72 5 0 4 -27 44 -60 88 -33 44 -60 82 -60 85 0
3 17 14 37 25 53 29 74 63 80 132 6 70 -7 120 -45 165 -46 54 -91 68 -229 68
l-123 0 0 -285z m261 146 c28 -34 25 -96 -6 -126 -20 -21 -34 -25 -80 -25
l-55 0 0 91 0 91 61 -4 c49 -4 66 -9 80 -27z"/>
<path d="M3150 2015 l0 -285 170 0 170 0 0 50 c0 45 -2 50 -22 51 -13 1 -27 2
-33 4 -5 1 -45 3 -87 3 l-78 2 0 230 0 230 -60 0 -60 0 0 -285z"/>
<path d="M3580 2015 l0 -287 168 4 c160 3 169 4 219 31 62 32 94 76 119 161
29 105 5 223 -60 290 -71 72 -98 80 -283 84 l-163 4 0 -287z m327 149 c46 -35
66 -70 71 -127 12 -149 -81 -219 -265 -198 -10 1 -13 42 -13 169 0 93 3 172 8
176 4 5 44 6 90 4 62 -3 89 -9 109 -24z"/>
<path d="M1395 1870 c-7 -24 47 -126 126 -240 135 -192 357 -354 592 -430 88
-29 100 -31 115 -17 9 8 37 18 62 22 25 4 73 16 107 27 l62 19 38 -25 c21 -14
51 -28 66 -32 16 -4 32 -16 37 -29 14 -36 76 -49 100 -20 8 10 31 15 69 15 73
0 229 24 313 49 128 37 302 127 415 213 63 49 213 196 213 210 0 24 -38 -1
-112 -75 -46 -45 -114 -106 -152 -134 -105 -77 -293 -169 -409 -198 -102 -25
-317 -45 -316 -29 0 5 28 22 62 38 53 26 75 30 152 31 63 1 111 9 160 25 91
29 239 99 290 137 65 48 225 193 225 204 0 21 -37 6 -70 -28 -52 -55 -117
-111 -185 -159 -94 -65 -138 -85 -312 -139 -29 -9 -10 6 37 30 27 14 74 45
104 70 33 26 66 45 81 45 15 0 31 9 41 25 36 55 -38 115 -78 65 -11 -13 -17
-32 -15 -42 12 -43 -191 -179 -289 -195 l-39 -6 53 59 c62 69 110 160 94 176
-7 7 -18 -4 -35 -38 -30 -58 -79 -122 -125 -160 l-34 -27 -54 29 c-44 24 -54
34 -54 55 0 32 -28 59 -62 59 -27 0 -58 -27 -58 -52 0 -19 -22 -38 -90 -78
l-54 -32 -33 38 c-18 22 -38 54 -44 72 -10 29 -8 36 10 56 23 24 28 75 9 94
-17 17 -74 15 -92 -4 -24 -23 -20 -67 9 -94 14 -13 25 -28 25 -34 0 -17 39
-88 63 -113 11 -13 18 -26 14 -29 -12 -12 -117 15 -184 48 -87 43 -193 146
-193 188 0 34 -23 60 -54 60 -29 0 -46 -18 -46 -50 0 -32 17 -50 48 -50 16 0
40 -18 72 -53 57 -62 157 -132 212 -149 21 -6 38 -14 38 -18 0 -4 -21 -11 -46
-15 -26 -4 -55 -12 -66 -18 -27 -18 -158 30 -300 110 -202 114 -360 283 -460
493 -18 38 -36 69 -40 69 -4 1 -10 -8 -13 -19z m1325 -535 c8 -7 33 -22 54
-34 l40 -20 -56 -26 c-39 -18 -65 -24 -82 -19 -15 3 -39 1 -55 -6 -25 -10 -36
-9 -75 9 -25 11 -46 22 -46 24 0 3 19 16 43 30 23 14 50 34 60 45 15 16 27 19
60 15 23 -3 49 -11 57 -18z"/>
<path d="M1336 1723 c-14 -14 -4 -47 28 -97 29 -46 32 -55 20 -71 -21 -28 -17
-82 7 -106 18 -18 30 -20 70 -17 44 5 52 2 86 -30 51 -47 184 -142 258 -185
139 -81 366 -155 548 -177 136 -17 383 -8 514 19 110 23 292 84 370 125 62 32
51 33 -19 1 -159 -73 -421 -125 -626 -125 -342 0 -625 84 -877 259 -128 90
-185 147 -185 187 0 38 -21 63 -61 71 -22 4 -41 23 -78 79 -27 40 -52 70 -55
67z"/>
</g>
</svg>
