<?xml version="1.0" standalone="no"?>
<!DOCTYPE svg PUBLIC "-//W3C//DTD SVG 20010904//EN"
 "http://www.w3.org/TR/2001/REC-SVG-20010904/DTD/svg10.dtd">
<svg version="1.0" xmlns="http://www.w3.org/2000/svg"
 width="7080.000000pt" height="10080.000000pt" viewBox="0 0 1080.000000 1080.000000"
 preserveAspectRatio="xMidYMid meet">
<metadata>
Created by potrace 1.16, written by Peter Selinger 2001-2019
</metadata>
<g transform="translate(0.000000,1080.000000) scale(0.100000,-0.100000)"
fill="#000000" stroke="none">
<path d="M1153 5726 c-140 -27 -203 -89 -203 -201 0 -112 67 -163 250 -191
209 -31 253 -49 221 -88 -10 -12 -33 -16 -97 -16 l-84 0 0 35 0 35 -60 0 -60
0 0 -74 0 -73 38 -7 c62 -10 277 -7 333 5 63 14 99 46 99 89 0 75 -45 100
-240 135 -160 29 -194 41 -230 79 -30 33 -33 90 -6 130 33 51 95 69 246 73 74
3 160 1 190 -4 l55 -8 3 -93 3 -92 59 0 59 0 6 53 c3 28 7 86 8 127 l2 74 -40
9 c-76 15 -474 18 -552 3z"/>
<path d="M6410 5729 c-80 -13 -177 -66 -211 -114 -38 -53 -59 -141 -59 -244 0
-183 59 -279 200 -323 66 -20 95 -23 245 -23 186 0 248 10 329 54 96 51 139
148 140 316 0 127 -20 191 -79 251 -68 67 -140 86 -345 90 -91 1 -190 -1 -220
-7z m378 -116 c80 -41 96 -77 100 -218 3 -104 2 -113 -25 -165 -23 -44 -37
-59 -78 -80 -46 -23 -60 -25 -190 -25 -129 0 -144 2 -190 25 -63 32 -93 87
-102 186 -11 133 26 229 104 272 60 33 114 42 227 37 85 -3 107 -7 154 -32z"/>
<path d="M6486 5610 c-53 -14 -88 -36 -114 -73 -67 -99 -45 -311 37 -360 38
-23 170 -39 246 -31 154 17 204 75 205 239 0 172 -53 224 -233 231 -56 2 -119
-1 -141 -6z m174 -100 c39 -21 54 -147 25 -215 -25 -61 -107 -75 -156 -26 -28
28 -29 34 -29 116 0 78 2 88 25 110 19 19 35 25 70 25 26 0 55 -4 65 -10z"/>
<path d="M2090 5720 c-8 -5 -62 -116 -120 -247 -104 -236 -106 -238 -138 -241
-22 -2 -32 -8 -32 -20 0 -9 -3 -27 -6 -40 -6 -23 -6 -23 71 -20 l78 3 102 240
102 240 130 3 131 3 47 -108 c26 -59 74 -170 107 -245 l60 -138 93 0 93 0 4
40 c3 38 3 39 -31 42 l-34 3 -103 240 c-68 159 -108 242 -121 246 -27 11 -416
10 -433 -1z"/>
<path d="M2918 5723 l-68 -4 0 -164 c0 -125 3 -165 13 -165 6 0 29 -3 50 -6
l37 -7 0 137 0 136 370 0 370 0 0 -136 0 -135 48 7 c26 3 50 9 53 13 8 8 29
209 29 272 l0 46 -97 6 c-98 7 -677 6 -805 0z"/>
<path d="M3924 5723 c-43 -3 -53 -8 -58 -26 -13 -48 -19 -47 224 -47 l230 0 0
34 0 33 -77 7 c-76 6 -222 6 -319 -1z"/>
<path d="M4834 5723 c-49 -4 -52 -6 -58 -35 -3 -17 -6 -34 -6 -39 0 -5 103 -9
229 -9 247 0 241 -1 241 54 0 22 -5 23 -82 29 -83 7 -227 7 -324 0z"/>
<path d="M5763 5723 l-53 -4 0 -40 0 -39 198 2 197 3 3 36 3 36 -77 6 c-77 7
-171 7 -271 0z"/>
<path d="M7160 5723 c-48 -5 -60 -15 -60 -50 l0 -23 296 0 c313 0 366 -6 408
-45 70 -65 32 -201 -69 -249 l-35 -17 20 -40 c26 -50 85 -116 119 -133 36 -18
99 -27 144 -19 35 5 37 8 37 43 0 35 -2 38 -36 44 -23 5 -53 24 -87 57 l-52
50 50 27 c60 33 85 74 92 150 9 106 -43 167 -162 192 -51 11 -584 21 -665 13z"/>
<path d="M8128 5723 c-36 -3 -58 -8 -58 -16 0 -7 -3 -22 -6 -35 l-6 -22 253 2
254 3 3 31 3 31 -83 6 c-83 7 -251 6 -360 0z"/>
<path d="M9015 5721 l-90 -6 -3 -32 -3 -33 298 0 c317 0 355 -4 412 -47 52
-40 73 -99 72 -205 0 -142 -34 -212 -120 -252 -43 -20 -64 -21 -358 -24 l-313
-3 0 -39 0 -38 178 -7 c204 -9 442 -2 522 16 122 26 197 88 227 189 21 69 23
248 4 304 -30 86 -113 144 -236 164 -73 13 -466 21 -590 13z"/>
<path d="M5315 5708 c-3 -7 -29 -103 -59 -213 -30 -110 -56 -193 -59 -185 -3
8 -13 53 -22 100 -9 47 -19 93 -21 103 -4 14 1 17 29 17 38 0 47 12 47 61 l0
29 -120 0 c-68 0 -120 -4 -120 -9 0 -6 23 -94 50 -198 28 -103 55 -205 61
-225 l10 -38 67 0 67 0 70 245 70 245 60 0 60 0 65 -245 65 -245 77 0 c64 0
78 3 82 18 17 55 116 432 116 442 0 7 -33 10 -102 8 l-103 -3 -3 -42 -3 -43
41 0 c35 0 40 -3 36 -17 -3 -10 -15 -63 -26 -117 -11 -55 -22 -101 -24 -104
-2 -2 -27 94 -56 212 l-52 216 -149 0 c-111 0 -151 -3 -154 -12z"/>
<path d="M1213 5618 c-46 -10 -93 -55 -93 -89 0 -38 29 -76 69 -92 22 -9 84
-24 138 -33 198 -32 251 -53 279 -105 33 -64 7 -130 -64 -162 -43 -20 -64 -22
-222 -22 -96 0 -187 3 -202 8 -28 7 -28 8 -28 92 l0 85 -59 0 c-70 0 -68 4
-77 -146 -8 -119 -22 -107 150 -125 161 -17 433 -7 516 20 102 32 142 85 143
185 1 132 -49 167 -288 201 -155 23 -185 32 -185 55 0 29 33 41 103 38 62 -3
62 -3 65 -35 l3 -33 60 0 59 0 0 79 c0 73 -2 79 -22 85 -35 9 -298 5 -345 -6z"/>
<path d="M2990 5504 l0 -126 31 6 c17 3 39 6 49 6 15 0 19 12 25 63 9 88 13
97 41 97 l24 0 0 -155 0 -155 -59 0 -59 0 -4 -45 -3 -45 132 0 133 0 0 240 0
240 -155 0 -155 0 0 -126z"/>
<path d="M3330 5390 l0 -240 145 0 145 0 0 45 0 45 -70 0 -70 0 0 155 0 155
35 0 35 0 0 -80 c0 -78 1 -80 24 -80 13 0 38 -3 55 -6 l31 -6 0 126 0 126
-165 0 -165 0 0 -240z"/>
<path d="M3860 5618 c0 -7 -3 -30 -6 -50 l-7 -38 42 0 41 0 0 -150 0 -150 -29
0 c-30 0 -41 -14 -41 -56 0 -24 1 -24 105 -24 l105 0 0 240 0 240 -105 0 c-77
0 -105 -3 -105 -12z"/>
<path d="M4100 5390 l0 -240 110 0 110 0 0 40 c0 39 -1 40 -35 40 l-35 0 0
150 0 150 29 0 c25 0 29 4 35 38 10 65 15 62 -104 62 l-110 0 0 -240z"/>
<path d="M7096 5608 c-3 -13 -6 -35 -6 -50 0 -26 3 -28 45 -28 l45 0 0 -150 0
-150 -35 0 c-27 0 -35 -4 -35 -17 0 -10 -3 -28 -6 -40 -6 -23 -6 -23 105 -23
l111 0 0 240 0 240 -109 0 c-104 0 -109 -1 -115 -22z"/>
<path d="M7350 5391 l0 -241 105 0 105 0 0 30 c0 27 -3 30 -30 30 -28 0 -30 2
-30 40 0 35 3 40 24 40 18 0 27 -9 40 -43 31 -81 85 -156 134 -184 42 -25 59
-28 152 -31 132 -5 160 4 160 53 l0 35 -62 0 c-88 0 -130 14 -176 59 -35 34
-121 169 -111 174 2 1 26 13 53 27 59 30 86 63 92 116 6 52 -12 85 -61 109
-34 17 -66 20 -217 23 l-178 4 0 -241z m286 131 c16 -11 25 -41 18 -67 -7 -29
-43 -45 -104 -45 l-50 0 0 60 0 60 63 0 c34 0 67 -4 73 -8z"/>
<path d="M8060 5590 c0 -22 0 -43 0 -47 0 -5 15 -9 35 -11 l35 -3 0 -150 0
-149 -29 0 c-21 0 -30 -6 -35 -22 -15 -58 -15 -58 104 -58 l110 0 -2 238 -3
237 -107 3 -108 3 0 -41z"/>
<path d="M8310 5390 l0 -240 200 0 200 0 0 131 0 132 -52 -6 c-28 -4 -55 -12
-59 -18 -4 -7 -10 -48 -14 -91 l-7 -78 -59 0 -59 0 0 155 0 155 44 0 c47 0 56
11 56 73 l0 27 -125 0 -125 0 0 -240z"/>
<path d="M8917 5623 c-4 -3 -7 -26 -7 -50 l0 -43 40 0 40 0 0 -150 0 -150 -34
0 c-32 0 -34 -2 -38 -40 l-4 -40 108 0 108 0 0 240 0 240 -103 0 c-57 0 -107
-3 -110 -7z"/>
<path d="M9160 5391 l0 -241 173 0 c94 0 189 5 209 10 90 25 128 97 128 240 0
113 -24 163 -95 200 -47 23 -60 25 -232 29 l-183 3 0 -241z m305 133 c40 -19
55 -55 55 -133 0 -76 -16 -128 -46 -147 -14 -10 -55 -19 -94 -22 l-70 -5 0
162 0 161 61 0 c35 0 75 -7 94 -16z"/>
<path d="M2167 5593 c-19 -37 -187 -430 -187 -437 0 -3 54 -6 120 -6 l120 0 0
35 c0 35 0 35 -45 35 -46 0 -53 7 -35 41 10 17 22 19 115 19 l104 0 16 -30 16
-30 -45 0 c-37 0 -45 -3 -50 -22 -13 -49 -14 -48 140 -48 134 0 145 1 140 18
-3 9 -48 114 -100 232 l-95 215 -100 3 -100 3 -14 -28z"/>
<path d="M4770 5575 c0 -43 1 -45 28 -45 l29 0 68 -235 c38 -130 72 -241 77
-248 9 -15 277 -23 327 -10 34 9 34 9 76 156 24 82 44 150 47 152 2 2 21 -65
43 -150 l39 -153 44 -6 c58 -8 290 -6 321 3 20 5 29 25 63 136 111 366 107
355 132 355 26 0 36 17 36 61 l0 29 -75 0 c-72 0 -75 -1 -81 -26 -4 -15 -34
-126 -68 -248 l-61 -221 -103 -3 c-56 -1 -102 0 -102 3 0 12 -121 452 -130
473 -12 27 -55 30 -68 5 -9 -16 -142 -467 -142 -479 0 -3 -42 -3 -92 -2 l-92
3 -63 225 c-34 124 -64 235 -68 248 -5 21 -10 22 -95 22 l-90 0 0 -45z"/>
<path d="M8740 5265 l0 -145 -339 0 -339 0 -6 -22 c-16 -62 -47 -58 404 -58
l410 0 0 179 0 178 -37 7 c-21 3 -50 6 -65 6 l-28 0 0 -145z"/>
<path d="M1790 5080 l0 -40 204 0 c221 0 216 -1 216 56 l0 24 -210 0 -210 0 0
-40z"/>
<path d="M2290 5080 l0 -40 254 0 254 0 6 31 c3 17 6 35 6 40 0 5 -117 9 -260
9 l-260 0 0 -40z"/>
<path d="M3030 5080 l0 -40 288 2 287 3 3 38 3 37 -290 0 -291 0 0 -40z"/>
<path d="M3850 5080 l0 -40 230 0 c212 0 230 1 230 18 0 9 3 27 6 40 l6 22
-236 0 -236 0 0 -40z"/>
<path d="M7098 5080 l-4 -40 227 0 227 0 6 31 c3 17 6 35 6 40 0 5 -103 9
-229 9 l-229 0 -4 -40z"/>
</g>
</svg>
