<?xml version="1.0" standalone="no"?>
<!DOCTYPE svg PUBLIC "-//W3C//DTD SVG 20010904//EN"
 "http://www.w3.org/TR/2001/REC-SVG-20010904/DTD/svg10.dtd">
<svg version="1.0" xmlns="http://www.w3.org/2000/svg"
 width="1024.000000pt" height="1024.000000pt" viewBox="0 0 1024.000000 1024.000000"
 preserveAspectRatio="xMidYMid meet">
<metadata>
Created by potrace 1.16, written by Peter Selinger 2001-2019
</metadata>
<g transform="translate(0.000000,1024.000000) scale(0.100000,-0.100000)"
fill="#000000" stroke="none">
<path d="M0 5120 l0 -5120 5120 0 5120 0 0 5120 0 5120 -5120 0 -5120 0 0
-5120z m3589 1490 c89 -22 251 -92 251 -109 0 -7 -137 -227 -156 -250 -2 -2
-30 8 -61 22 -193 86 -410 80 -457 -12 -23 -43 -20 -75 9 -110 30 -34 79 -54
260 -106 148 -42 271 -97 331 -148 22 -20 56 -64 74 -99 31 -57 35 -72 38
-164 10 -242 -94 -390 -323 -461 -50 -15 -93 -18 -250 -17 -178 0 -196 2 -280
28 -105 32 -218 82 -238 105 -13 14 -4 31 80 148 l95 133 29 -21 c108 -76 328
-120 444 -88 59 17 105 67 105 116 0 73 -44 100 -271 169 -326 98 -429 179
-460 362 -20 121 27 280 109 366 74 77 193 136 317 157 79 13 261 2 354 -21z
m2969 -8 l152 -3 0 -145 0 -144 -255 0 -255 0 0 -570 0 -570 -170 0 -170 0 0
570 0 570 -262 0 -263 0 3 150 3 151 532 -3 c293 -2 601 -4 685 -6z m622 -702
c0 -390 0 -713 0 -717 0 -5 -75 -8 -167 -8 l-168 0 -3 718 -2 717 170 0 170 0
0 -710z m-2130 378 c413 -769 590 -1099 590 -1103 0 -3 -87 -5 -193 -5 l-193
0 -38 78 c-42 86 -307 590 -394 750 l-56 103 -19 -33 c-10 -18 -57 -105 -103
-193 -47 -88 -154 -283 -237 -432 l-150 -273 -184 0 c-103 0 -183 4 -183 9 0
5 17 40 39 78 81 144 523 967 617 1150 l99 193 116 0 115 0 174 -322z m2573
-99 c143 -28 247 -63 382 -129 144 -70 268 -156 383 -267 73 -71 83 -84 72
-98 -11 -13 -10 -14 4 -9 12 5 15 2 9 -12 -4 -11 -3 -15 4 -11 11 7 28 -22 18
-31 -3 -3 -5 1 -5 9 0 11 -2 11 -10 -1 -6 -10 -10 -11 -10 -2 0 6 -7 12 -15
12 -18 0 -20 -20 -2 -21 6 0 1 -5 -13 -10 -18 -8 -27 -7 -35 4 -8 11 -15 9
-40 -15 -16 -15 -24 -28 -17 -28 6 0 12 4 12 10 0 5 8 14 18 19 16 9 18 4 19
-47 1 -31 -3 -62 -8 -68 -6 -8 -5 -22 3 -39 10 -21 9 -28 -1 -35 -10 -5 -24 7
-48 44 -106 158 -368 346 -598 429 -80 28 -249 67 -295 67 l-30 0 0 130 0 131
53 -7 c28 -3 96 -15 150 -25z m-2815 -555 c35 -23 53 -74 42 -116 -11 -39 -53
-84 -69 -74 -6 4 -9 1 -5 -8 5 -12 -105 -150 -209 -261 -15 -16 -62 -72 -104
-122 l-77 -93 -1298 0 c-1150 0 -1302 -2 -1329 -15 -16 -9 -35 -13 -41 -9 -6
4 -8 3 -5 -3 8 -13 -129 -77 -144 -67 -8 5 -9 3 -4 -5 4 -7 -2 -22 -16 -37
-32 -34 -98 -34 -133 1 -46 46 -46 106 -1 151 27 27 91 33 124 12 16 -9 29 -5
85 31 37 23 82 50 102 61 34 20 60 20 1334 20 l1299 0 62 73 c60 70 95 111
193 226 47 56 55 76 34 84 -8 2 -13 22 -13 50 0 101 91 155 173 101z m3856
-245 c1 -8 13 -34 26 -59 12 -25 22 -45 21 -45 -1 0 0 -7 3 -15 60 -177 76
-271 83 -465 3 -93 2 -167 -2 -163 -4 4 -9 71 -11 150 -6 193 -15 258 -35 258
-6 0 -6 -8 1 -19 5 -11 12 -99 14 -195 3 -97 8 -181 12 -188 5 -10 4 -11 -6
-1 -10 9 -14 44 -13 128 0 63 -4 115 -8 115 -9 0 -33 109 -25 117 3 3 7 -5 10
-18 12 -55 15 -62 11 -24 -2 22 -7 55 -11 73 -5 25 -4 32 7 30 14 -3 14 0 10
45 -3 24 -4 22 -26 -41 -4 -13 -14 -21 -24 -20 -11 2 -17 -6 -19 -29 -4 -37
-22 -46 -22 -11 0 34 -23 88 -37 88 -14 0 -9 44 7 65 5 6 10 24 13 40 9 56 19
85 29 85 6 0 8 -7 4 -15 -3 -8 -1 -15 4 -15 6 0 10 -8 9 -17 0 -11 -3 -13 -6
-5 -11 29 -20 8 -18 -45 3 -74 4 -76 18 -29 14 47 37 60 37 21 0 -15 -4 -24
-10 -20 -5 3 -10 -2 -10 -12 0 -11 -5 -24 -11 -30 -13 -13 -5 -43 11 -43 6 0
9 4 5 9 -3 6 3 18 13 28 14 13 18 28 14 56 -2 21 -10 41 -18 44 -7 2 -10 11
-7 19 3 8 0 20 -6 28 -7 8 -11 18 -10 22 2 16 -13 54 -22 54 -5 0 -9 7 -9 16
0 9 -5 12 -12 8 -10 -5 -10 -4 -1 6 9 10 9 19 1 34 -8 16 -8 18 1 10 7 -6 13
-18 15 -25z m-238 -26 c-3 -8 -2 -12 3 -9 14 9 33 -21 34 -52 0 -15 2 -22 4
-16 4 12 63 6 63 -7 0 -5 18 -9 40 -9 29 0 40 4 40 15 0 18 -21 20 -38 3 -9
-9 -12 -2 -12 35 0 47 0 47 34 47 25 0 36 -5 41 -19 3 -11 12 -22 21 -25 12
-5 10 -14 -12 -58 -15 -29 -30 -54 -35 -56 -5 -2 -9 -21 -9 -43 0 -25 -5 -39
-13 -39 -14 0 -39 58 -31 72 6 10 -14 38 -27 38 -4 0 -3 -15 3 -32 6 -18 10
-43 10 -55 0 -13 5 -20 10 -17 6 4 6 -1 -1 -13 -6 -13 -7 -31 -1 -49 8 -28 8
-28 9 -4 2 24 2 24 16 5 19 -24 15 -37 -11 -41 -16 -3 -23 10 -42 74 -13 42
-39 107 -58 145 -19 38 -31 74 -27 81 3 6 3 8 -2 4 -11 -10 -34 23 -28 39 3 7
9 10 15 7 5 -3 7 -13 4 -21z m-5748 -71 c1 -42 -1 -83 -6 -90 -7 -9 -117 -12
-518 -10 l-509 3 -1 80 c-1 44 1 83 3 88 2 4 235 7 516 7 l512 0 3 -78z m4918
-23 c103 -32 181 -72 263 -138 81 -65 101 -89 81 -101 -9 -5 -9 -9 -1 -14 12
-8 35 -46 27 -46 -2 0 -12 7 -20 16 -15 14 -16 14 -16 -3 0 -10 -3 -14 -8 -8
-4 6 -14 11 -22 10 -21 0 -60 -24 -60 -36 0 -6 7 -3 16 5 14 14 54 23 54 12 0
-2 3 -13 6 -23 6 -16 5 -16 -9 2 -15 19 -17 19 -33 3 -17 -17 -17 -19 14 -51
31 -32 43 -67 22 -67 -5 0 -6 7 -3 17 5 12 3 14 -7 8 -9 -5 -11 -4 -6 4 7 11
-58 81 -75 81 -5 0 -38 20 -73 44 -84 58 -165 87 -253 94 l-73 5 0 110 0 110
54 -7 c29 -3 84 -15 122 -27z m-1415 -160 c969 3 1153 1 1160 -10 5 -8 9 -44
9 -80 l0 -67 -1202 6 -1203 5 -90 95 c-49 52 -92 99 -94 104 -1 5 19 33 45 62
l49 53 88 -86 87 -86 1151 4z m-1420 -38 c38 -39 39 -87 3 -130 -21 -26 -33
-31 -69 -31 -52 0 -91 28 -100 71 -21 95 97 159 166 90z m3860 -72 c1 -19 -1
-44 -5 -57 -10 -31 2 -82 15 -61 5 7 9 19 9 24 0 6 -5 3 -10 -5 -10 -16 -14
-1 -5 22 6 15 83 13 100 -3 5 -5 10 -88 11 -184 1 -96 5 -180 9 -187 4 -7 -1
-4 -10 7 -17 20 -17 20 -10 -2 4 -15 0 -31 -10 -45 -16 -22 -17 -20 -10 52 4
41 11 80 16 87 6 6 9 29 6 50 l-4 38 -1 -42 c-2 -38 -5 -42 -24 -40 -19 2 -24
-4 -29 -33 -12 -72 -40 67 -34 171 2 41 2 68 -1 62 -3 -7 -9 -13 -14 -13 -5 0
-10 6 -13 13 -2 6 -3 3 -1 -8 10 -73 13 -118 5 -90 l-9 30 -1 -32 c0 -17 4
-33 9 -35 11 -3 15 -88 7 -148 -2 -19 -2 -27 0 -17 8 30 18 18 18 -21 -1 -43
-13 -84 -24 -78 -4 3 -8 35 -9 72 -1 38 -6 70 -11 73 -4 3 -11 76 -14 161 -4
85 -9 167 -13 183 -5 20 -3 27 8 27 12 0 14 -12 11 -57 -4 -67 3 -66 16 3 6
32 6 53 -1 61 -6 7 -7 30 -3 55 6 36 9 39 15 22 5 -11 9 -36 11 -55z m-5648
-321 c9 -7 82 -177 162 -378 80 -201 151 -376 157 -390 10 -23 12 -21 33 45
103 317 209 666 209 693 l0 32 124 0 c101 0 122 -2 114 -13 -10 -11 -183 -510
-325 -937 -23 -69 -46 -128 -52 -133 -5 -4 -50 -6 -100 -5 l-89 3 -7 34 c-9
44 -251 651 -260 651 -3 0 -69 -155 -145 -345 l-138 -345 -97 0 -96 0 -1 30
c-1 28 -299 966 -325 1020 -6 14 -13 28 -15 33 -2 4 51 7 117 7 97 0 119 -3
115 -13 -3 -8 21 -94 52 -193 31 -98 82 -266 113 -371 32 -106 60 -195 63
-198 5 -5 30 57 209 515 50 129 95 243 100 253 11 20 57 23 82 5z m1591 -17
c208 -74 347 -260 363 -486 16 -228 -89 -431 -275 -528 -98 -52 -178 -70 -297
-70 -116 1 -221 29 -305 83 -107 69 -201 201 -231 325 -6 28 -11 93 -11 145 1
261 160 474 404 540 97 27 264 22 352 -9z m1109 0 c137 -35 209 -87 257 -184
92 -187 18 -399 -167 -484 -34 -16 -51 -29 -46 -36 16 -29 170 -257 206 -305
21 -30 37 -55 35 -58 -3 -2 -60 -1 -127 3 -104 5 -123 9 -132 25 -5 10 -70
109 -143 221 -73 112 -141 217 -149 234 l-16 30 103 5 c120 7 175 26 223 81
36 41 48 87 40 154 -6 59 -31 92 -93 123 -45 23 -60 25 -194 25 l-145 0 0
-448 c0 -291 -3 -447 -10 -448 -5 0 -55 -1 -110 -2 l-100 -2 0 542 0 543 246
0 c211 0 257 -3 322 -19z m692 -414 c0 -237 1 -440 3 -449 4 -17 24 -18 239
-18 l234 0 -3 -92 -3 -93 -340 -3 -340 -2 0 545 0 545 105 0 105 0 0 -433z
m1210 409 c190 -52 328 -175 386 -346 33 -96 33 -259 1 -353 -42 -119 -139
-229 -256 -289 -114 -58 -186 -70 -455 -75 -236 -5 -244 -5 -235 13 14 29 17
1030 3 1055 l-11 21 254 -5 c192 -3 267 -8 313 -21z m1008 -151 c-2 -36 0 -65
4 -65 5 0 9 -12 10 -26 0 -15 5 -29 10 -33 12 -8 25 -71 15 -71 -4 0 -8 -9 -8
-20 0 -30 22 -24 36 9 13 32 36 46 46 29 4 -7 3 -8 -4 -4 -14 8 -15 4 -6 -18
3 -9 10 -13 15 -10 13 8 -51 -135 -74 -164 -8 -10 -22 -1 -63 39 -29 29 -51
56 -49 60 3 4 -2 12 -10 19 -8 7 -15 18 -15 24 0 6 4 4 10 -4 7 -11 11 -9 20
14 6 16 10 33 9 40 -1 6 -1 20 0 31 1 17 3 18 12 5 9 -12 10 -11 6 7 -3 12 1
51 9 87 7 36 15 79 16 95 1 16 5 28 9 26 3 -3 5 -34 2 -70z m-214 -160 c2 -3
7 -32 9 -65 14 -193 -178 -452 -455 -614 -34 -20 -64 -36 -68 -36 -4 0 16 19
44 43 174 148 348 431 392 636 11 52 12 53 42 47 17 -3 33 -9 36 -11z"/>
<path d="M4249 4466 c-93 -33 -174 -112 -210 -205 -32 -80 -32 -213 0 -294 30
-77 101 -148 178 -178 87 -35 218 -34 294 2 75 35 133 89 164 152 99 203 10
456 -184 522 -54 18 -192 19 -242 1z"/>
<path d="M7230 4125 l0 -355 113 0 c132 0 209 17 285 63 110 66 157 163 150
306 -5 101 -30 167 -86 224 -83 85 -177 117 -349 117 l-113 0 0 -355z"/>
</g>
</svg>
